<svg width="177" height="40" viewBox="0 0 177 40" fill="none" xmlns="http://www.w3.org/2000/svg">
<path d="M9.57056 27.1698H0V0H9.64965C12.3653 0 14.703 0.543927 16.6628 1.63178C18.6226 2.71079 20.1298 4.26297 21.1844 6.28832C22.2478 8.31368 22.7795 10.737 22.7795 13.5584C22.7795 16.3886 22.2478 18.8208 21.1844 20.855C20.1298 22.8892 18.6138 24.4502 16.6364 25.538C14.6678 26.6259 12.3125 27.1698 9.57056 27.1698ZM5.70806 22.2479H9.33327C11.0206 22.2479 12.44 21.9472 13.5912 21.3458C14.7513 20.7356 15.6214 19.7936 16.2014 18.52C16.7902 17.2376 17.0846 15.5837 17.0846 13.5584C17.0846 11.5507 16.7902 9.91008 16.2014 8.6365C15.6214 7.36291 14.7557 6.42541 13.6044 5.824C12.4531 5.22258 11.0338 4.92188 9.34645 4.92188H5.70806V22.2479Z" fill="url(#paint0_linear_1_2239)"/>
<path d="M9.57056 27.1698H0V0H9.64965C12.3653 0 14.703 0.543927 16.6628 1.63178C18.6226 2.71079 20.1298 4.26297 21.1844 6.28832C22.2478 8.31368 22.7795 10.737 22.7795 13.5584C22.7795 16.3886 22.2478 18.8208 21.1844 20.855C20.1298 22.8892 18.6138 24.4502 16.6364 25.538C14.6678 26.6259 12.3125 27.1698 9.57056 27.1698ZM5.70806 22.2479H9.33327C11.0206 22.2479 12.44 21.9472 13.5912 21.3458C14.7513 20.7356 15.6214 19.7936 16.2014 18.52C16.7902 17.2376 17.0846 15.5837 17.0846 13.5584C17.0846 11.5507 16.7902 9.91008 16.2014 8.6365C15.6214 7.36291 14.7557 6.42541 13.6044 5.824C12.4531 5.22258 11.0338 4.92188 9.34645 4.92188H5.70806V22.2479Z" fill="white" fill-opacity="0.3"/>
<path d="M32.8717 32.7565C30.7888 32.7565 28.996 32.332 27.4932 31.4829C25.9991 30.625 24.8479 29.4133 24.0393 27.8479C23.2308 26.2736 22.8265 24.4119 22.8265 22.2627C22.8265 20.1666 23.2308 18.3269 24.0393 16.7438C24.8479 15.1607 25.986 13.9269 27.4536 13.0425C28.9301 12.158 30.6614 11.7158 32.6476 11.7158C33.9834 11.7158 35.2269 11.9325 36.3782 12.3659C37.5383 12.7904 38.549 13.4316 39.4102 14.2895C40.2803 15.1474 40.957 16.2264 41.4403 17.5265C41.9237 18.8178 42.1654 20.3302 42.1654 22.0637V23.6159H25.0676V20.1135H36.8792C36.8792 19.2998 36.7034 18.579 36.3519 17.9511C36.0003 17.3231 35.5126 16.8322 34.8886 16.4785C34.2734 16.1159 33.5572 15.9346 32.7398 15.9346C31.8874 15.9346 31.1316 16.1335 30.4724 16.5315C29.8221 16.9207 29.3124 17.4469 28.9433 18.1103C28.5741 18.7647 28.3852 19.4944 28.3764 20.2992V23.6291C28.3764 24.6374 28.561 25.5085 28.9301 26.2426C29.308 26.9767 29.8397 27.5427 30.5252 27.9407C31.2107 28.3387 32.0236 28.5377 32.9639 28.5377C33.5879 28.5377 34.1592 28.4493 34.6777 28.2724C35.1962 28.0955 35.64 27.8302 36.0091 27.4764C36.3782 27.1226 36.6595 26.6893 36.8528 26.1763L42.0467 26.5212C41.7831 27.7771 41.2426 28.8738 40.4253 29.8113C39.6168 30.74 38.5709 31.4652 37.2878 31.987C36.0135 32.5 34.5415 32.7565 32.8717 32.7565Z" fill="url(#paint1_linear_1_2239)"/>
<path d="M32.8717 32.7565C30.7888 32.7565 28.996 32.332 27.4932 31.4829C25.9991 30.625 24.8479 29.4133 24.0393 27.8479C23.2308 26.2736 22.8265 24.4119 22.8265 22.2627C22.8265 20.1666 23.2308 18.3269 24.0393 16.7438C24.8479 15.1607 25.986 13.9269 27.4536 13.0425C28.9301 12.158 30.6614 11.7158 32.6476 11.7158C33.9834 11.7158 35.2269 11.9325 36.3782 12.3659C37.5383 12.7904 38.549 13.4316 39.4102 14.2895C40.2803 15.1474 40.957 16.2264 41.4403 17.5265C41.9237 18.8178 42.1654 20.3302 42.1654 22.0637V23.6159H25.0676V20.1135H36.8792C36.8792 19.2998 36.7034 18.579 36.3519 17.9511C36.0003 17.3231 35.5126 16.8322 34.8886 16.4785C34.2734 16.1159 33.5572 15.9346 32.7398 15.9346C31.8874 15.9346 31.1316 16.1335 30.4724 16.5315C29.8221 16.9207 29.3124 17.4469 28.9433 18.1103C28.5741 18.7647 28.3852 19.4944 28.3764 20.2992V23.6291C28.3764 24.6374 28.561 25.5085 28.9301 26.2426C29.308 26.9767 29.8397 27.5427 30.5252 27.9407C31.2107 28.3387 32.0236 28.5377 32.9639 28.5377C33.5879 28.5377 34.1592 28.4493 34.6777 28.2724C35.1962 28.0955 35.64 27.8302 36.0091 27.4764C36.3782 27.1226 36.6595 26.6893 36.8528 26.1763L42.0467 26.5212C41.7831 27.7771 41.2426 28.8738 40.4253 29.8113C39.6168 30.74 38.5709 31.4652 37.2878 31.987C36.0135 32.5 34.5415 32.7565 32.8717 32.7565Z" fill="white" fill-opacity="0.3"/>
<path d="M52.8306 30.681C50.7478 30.681 48.9549 30.2565 47.4521 29.4074C45.9581 28.5495 44.8068 27.3379 43.9983 25.7724C43.1898 24.1981 42.7855 22.3364 42.7855 20.1872C42.7855 18.0911 43.1898 16.2515 43.9983 14.6683C44.8068 13.0852 45.9449 11.8514 47.4126 10.967C48.889 10.0825 50.6203 9.64033 52.6065 9.64033C53.9424 9.64033 55.1859 9.85702 56.3372 10.2904C57.4973 10.7149 58.5079 11.3561 59.3692 12.214C60.2392 13.0719 60.9159 14.1509 61.3993 15.4511C61.8827 16.7423 62.1243 18.2547 62.1243 19.9882V21.5404H45.0265V18.038H56.8381C56.8381 17.2244 56.6624 16.5035 56.3108 15.8756C55.9593 15.2476 55.4715 14.7568 54.8476 14.403C54.2324 14.0404 53.5161 13.8591 52.6988 13.8591C51.8463 13.8591 51.0905 14.0581 50.4314 14.4561C49.7811 14.8452 49.2713 15.3715 48.9022 16.0348C48.5331 16.6893 48.3441 17.4189 48.3354 18.2238V21.5537C48.3354 22.5619 48.5199 23.4331 48.889 24.1672C49.2669 24.9012 49.7986 25.4673 50.4841 25.8653C51.1696 26.2633 51.9825 26.4623 52.9229 26.4623C53.5469 26.4623 54.1181 26.3738 54.6366 26.1969C55.1552 26.02 55.599 25.7547 55.9681 25.4009C56.3372 25.0472 56.6184 24.6138 56.8118 24.1008L62.0057 24.4458C61.742 25.7016 61.2016 26.7983 60.3842 27.7358C59.5757 28.6645 58.5299 29.3897 57.2468 29.9116C55.9725 30.4245 54.5004 30.681 52.8306 30.681Z" fill="url(#paint2_linear_1_2239)"/>
<path d="M52.8306 30.681C50.7478 30.681 48.9549 30.2565 47.4521 29.4074C45.9581 28.5495 44.8068 27.3379 43.9983 25.7724C43.1898 24.1981 42.7855 22.3364 42.7855 20.1872C42.7855 18.0911 43.1898 16.2515 43.9983 14.6683C44.8068 13.0852 45.9449 11.8514 47.4126 10.967C48.889 10.0825 50.6203 9.64033 52.6065 9.64033C53.9424 9.64033 55.1859 9.85702 56.3372 10.2904C57.4973 10.7149 58.5079 11.3561 59.3692 12.214C60.2392 13.0719 60.9159 14.1509 61.3993 15.4511C61.8827 16.7423 62.1243 18.2547 62.1243 19.9882V21.5404H45.0265V18.038H56.8381C56.8381 17.2244 56.6624 16.5035 56.3108 15.8756C55.9593 15.2476 55.4715 14.7568 54.8476 14.403C54.2324 14.0404 53.5161 13.8591 52.6988 13.8591C51.8463 13.8591 51.0905 14.0581 50.4314 14.4561C49.7811 14.8452 49.2713 15.3715 48.9022 16.0348C48.5331 16.6893 48.3441 17.4189 48.3354 18.2238V21.5537C48.3354 22.5619 48.5199 23.4331 48.889 24.1672C49.2669 24.9012 49.7986 25.4673 50.4841 25.8653C51.1696 26.2633 51.9825 26.4623 52.9229 26.4623C53.5469 26.4623 54.1181 26.3738 54.6366 26.1969C55.1552 26.02 55.599 25.7547 55.9681 25.4009C56.3372 25.0472 56.6184 24.6138 56.8118 24.1008L62.0057 24.4458C61.742 25.7016 61.2016 26.7983 60.3842 27.7358C59.5757 28.6645 58.5299 29.3897 57.2468 29.9116C55.9725 30.4245 54.5004 30.681 52.8306 30.681Z" fill="white" fill-opacity="0.3"/>
<path d="M63.5618 40V6.79245H69.0985V10.2152H69.3489C69.595 9.66686 69.9509 9.10967 70.4167 8.54363C70.8913 7.96875 71.5065 7.49116 72.2623 7.11085C73.0269 6.7217 73.976 6.52712 75.1097 6.52712C76.5862 6.52712 77.9484 6.91627 79.1963 7.69457C80.4443 8.46403 81.4417 9.62706 82.1888 11.1837C82.9358 12.7314 83.3093 14.6728 83.3093 17.0077C83.3093 19.2807 82.9446 21.1999 82.2151 22.7653C81.4945 24.3219 80.5102 25.5027 79.2622 26.3075C78.0231 27.1035 76.6345 27.5015 75.0965 27.5015C74.0068 27.5015 73.0796 27.3202 72.315 26.9575C71.5592 26.5949 70.9396 26.1394 70.4563 25.5911C69.9729 25.0339 69.6038 24.4723 69.3489 23.9063H69.1776V40H63.5618ZM69.0589 16.9811C69.0589 18.1928 69.2259 19.2497 69.5598 20.1518C69.8938 21.0539 70.3772 21.7571 71.0099 22.2612C71.6427 22.7565 72.4117 23.0041 73.3169 23.0041C74.2309 23.0041 75.0043 22.7521 75.637 22.2479C76.2698 21.735 76.7488 21.0274 77.0739 20.1253C77.4079 19.2143 77.5749 18.1663 77.5749 16.9811C77.5749 15.8048 77.4123 14.77 77.0871 13.8768C76.7619 12.9835 76.283 12.2848 75.6502 11.7807C75.0174 11.2765 74.2397 11.0245 73.3169 11.0245C72.4029 11.0245 71.6295 11.2677 70.9968 11.7541C70.3728 12.2406 69.8938 12.9304 69.5598 13.8237C69.2259 14.717 69.0589 15.7695 69.0589 16.9811Z" fill="url(#paint3_linear_1_2239)"/>
<path d="M63.5618 40V6.79245H69.0985V10.2152H69.3489C69.595 9.66686 69.9509 9.10967 70.4167 8.54363C70.8913 7.96875 71.5065 7.49116 72.2623 7.11085C73.0269 6.7217 73.976 6.52712 75.1097 6.52712C76.5862 6.52712 77.9484 6.91627 79.1963 7.69457C80.4443 8.46403 81.4417 9.62706 82.1888 11.1837C82.9358 12.7314 83.3093 14.6728 83.3093 17.0077C83.3093 19.2807 82.9446 21.1999 82.2151 22.7653C81.4945 24.3219 80.5102 25.5027 79.2622 26.3075C78.0231 27.1035 76.6345 27.5015 75.0965 27.5015C74.0068 27.5015 73.0796 27.3202 72.315 26.9575C71.5592 26.5949 70.9396 26.1394 70.4563 25.5911C69.9729 25.0339 69.6038 24.4723 69.3489 23.9063H69.1776V40H63.5618ZM69.0589 16.9811C69.0589 18.1928 69.2259 19.2497 69.5598 20.1518C69.8938 21.0539 70.3772 21.7571 71.0099 22.2612C71.6427 22.7565 72.4117 23.0041 73.3169 23.0041C74.2309 23.0041 75.0043 22.7521 75.637 22.2479C76.2698 21.735 76.7488 21.0274 77.0739 20.1253C77.4079 19.2143 77.5749 18.1663 77.5749 16.9811C77.5749 15.8048 77.4123 14.77 77.0871 13.8768C76.7619 12.9835 76.283 12.2848 75.6502 11.7807C75.0174 11.2765 74.2397 11.0245 73.3169 11.0245C72.4029 11.0245 71.6295 11.2677 70.9968 11.7541C70.3728 12.2406 69.8938 12.9304 69.5598 13.8237C69.2259 14.717 69.0589 15.7695 69.0589 16.9811Z" fill="white" fill-opacity="0.3"/>
<path d="M84.9313 0H91.9708L99.4058 18.2547H99.7221L107.157 0H114.197V27.1698H108.66V9.48555H108.436L101.449 27.0371H97.6788L90.692 9.41922H90.468V27.1698H84.9313V0Z" fill="url(#paint4_linear_1_2239)"/>
<path d="M84.9313 0H91.9708L99.4058 18.2547H99.7221L107.157 0H114.197V27.1698H108.66V9.48555H108.436L101.449 27.0371H97.6788L90.692 9.41922H90.468V27.1698H84.9313V0Z" fill="white" fill-opacity="0.3"/>
<path d="M125.715 27.5678C123.668 27.5678 121.897 27.13 120.403 26.2544C118.918 25.37 117.771 24.1406 116.962 22.5663C116.154 20.9832 115.749 19.148 115.749 17.0607C115.749 14.9558 116.154 13.1162 116.962 11.5419C117.771 9.95873 118.918 8.72936 120.403 7.85377C121.897 6.96934 123.668 6.52712 125.715 6.52712C127.763 6.52712 129.53 6.96934 131.015 7.85377C132.509 8.72936 133.66 9.95873 134.469 11.5419C135.277 13.1162 135.681 14.9558 135.681 17.0607C135.681 19.148 135.277 20.9832 134.469 22.5663C133.66 24.1406 132.509 25.37 131.015 26.2544C129.53 27.13 127.763 27.5678 125.715 27.5678ZM125.742 23.1899C126.673 23.1899 127.451 22.9245 128.075 22.3939C128.699 21.8544 129.169 21.1203 129.486 20.1916C129.811 19.263 129.973 18.2061 129.973 17.0209C129.973 15.8358 129.811 14.7789 129.486 13.8502C129.169 12.9216 128.699 12.1875 128.075 11.648C127.451 11.1085 126.673 10.8387 125.742 10.8387C124.801 10.8387 124.01 11.1085 123.369 11.648C122.736 12.1875 122.257 12.9216 121.932 13.8502C121.616 14.7789 121.457 15.8358 121.457 17.0209C121.457 18.2061 121.616 19.263 121.932 20.1916C122.257 21.1203 122.736 21.8544 123.369 22.3939C124.01 22.9245 124.801 23.1899 125.742 23.1899Z" fill="url(#paint5_linear_1_2239)"/>
<path d="M125.715 27.5678C123.668 27.5678 121.897 27.13 120.403 26.2544C118.918 25.37 117.771 24.1406 116.962 22.5663C116.154 20.9832 115.749 19.148 115.749 17.0607C115.749 14.9558 116.154 13.1162 116.962 11.5419C117.771 9.95873 118.918 8.72936 120.403 7.85377C121.897 6.96934 123.668 6.52712 125.715 6.52712C127.763 6.52712 129.53 6.96934 131.015 7.85377C132.509 8.72936 133.66 9.95873 134.469 11.5419C135.277 13.1162 135.681 14.9558 135.681 17.0607C135.681 19.148 135.277 20.9832 134.469 22.5663C133.66 24.1406 132.509 25.37 131.015 26.2544C129.53 27.13 127.763 27.5678 125.715 27.5678ZM125.742 23.1899C126.673 23.1899 127.451 22.9245 128.075 22.3939C128.699 21.8544 129.169 21.1203 129.486 20.1916C129.811 19.263 129.973 18.2061 129.973 17.0209C129.973 15.8358 129.811 14.7789 129.486 13.8502C129.169 12.9216 128.699 12.1875 128.075 11.648C127.451 11.1085 126.673 10.8387 125.742 10.8387C124.801 10.8387 124.01 11.1085 123.369 11.648C122.736 12.1875 122.257 12.9216 121.932 13.8502C121.616 14.7789 121.457 15.8358 121.457 17.0209C121.457 18.2061 121.616 19.263 121.932 20.1916C122.257 21.1203 122.736 21.8544 123.369 22.3939C124.01 22.9245 124.801 23.1899 125.742 23.1899Z" fill="white" fill-opacity="0.3"/>
<path d="M144.567 27.5015C143.029 27.5015 141.636 27.1035 140.388 26.3075C139.149 25.5027 138.165 24.3219 137.435 22.7653C136.715 21.1999 136.354 19.2807 136.354 17.0077C136.354 14.6728 136.728 12.7314 137.475 11.1837C138.222 9.62706 139.215 8.46403 140.454 7.69457C141.702 6.91627 143.069 6.52712 144.554 6.52712C145.688 6.52712 146.632 6.7217 147.388 7.11085C148.153 7.49116 148.768 7.96875 149.234 8.54363C149.708 9.10967 150.069 9.66686 150.315 10.2152H150.486V0H156.089V27.1698H150.552V23.9063H150.315C150.051 24.4723 149.677 25.0339 149.194 25.5911C148.72 26.1394 148.1 26.5949 147.335 26.9575C146.58 27.3202 145.657 27.5015 144.567 27.5015ZM146.347 23.0041C147.252 23.0041 148.016 22.7565 148.64 22.2612C149.273 21.7571 149.757 21.0539 150.091 20.1518C150.433 19.2497 150.605 18.1928 150.605 16.9811C150.605 15.7695 150.438 14.717 150.104 13.8237C149.77 12.9304 149.286 12.2406 148.654 11.7541C148.021 11.2677 147.252 11.0245 146.347 11.0245C145.424 11.0245 144.646 11.2765 144.013 11.7807C143.381 12.2848 142.902 12.9835 142.576 13.8768C142.251 14.77 142.089 15.8048 142.089 16.9811C142.089 18.1663 142.251 19.2143 142.576 20.1253C142.91 21.0274 143.389 21.735 144.013 22.2479C144.646 22.7521 145.424 23.0041 146.347 23.0041Z" fill="url(#paint6_linear_1_2239)"/>
<path d="M144.567 27.5015C143.029 27.5015 141.636 27.1035 140.388 26.3075C139.149 25.5027 138.165 24.3219 137.435 22.7653C136.715 21.1999 136.354 19.2807 136.354 17.0077C136.354 14.6728 136.728 12.7314 137.475 11.1837C138.222 9.62706 139.215 8.46403 140.454 7.69457C141.702 6.91627 143.069 6.52712 144.554 6.52712C145.688 6.52712 146.632 6.7217 147.388 7.11085C148.153 7.49116 148.768 7.96875 149.234 8.54363C149.708 9.10967 150.069 9.66686 150.315 10.2152H150.486V0H156.089V27.1698H150.552V23.9063H150.315C150.051 24.4723 149.677 25.0339 149.194 25.5911C148.72 26.1394 148.1 26.5949 147.335 26.9575C146.58 27.3202 145.657 27.5015 144.567 27.5015ZM146.347 23.0041C147.252 23.0041 148.016 22.7565 148.64 22.2612C149.273 21.7571 149.757 21.0539 150.091 20.1518C150.433 19.2497 150.605 18.1928 150.605 16.9811C150.605 15.7695 150.438 14.717 150.104 13.8237C149.77 12.9304 149.286 12.2406 148.654 11.7541C148.021 11.2677 147.252 11.0245 146.347 11.0245C145.424 11.0245 144.646 11.2765 144.013 11.7807C143.381 12.2848 142.902 12.9835 142.576 13.8768C142.251 14.77 142.089 15.8048 142.089 16.9811C142.089 18.1663 142.251 19.2143 142.576 20.1253C142.91 21.0274 143.389 21.735 144.013 22.2479C144.646 22.7521 145.424 23.0041 146.347 23.0041Z" fill="white" fill-opacity="0.3"/>
<path d="M167.706 27.5678C165.623 27.5678 163.831 27.1433 162.328 26.2942C160.834 25.4363 159.682 24.2246 158.874 22.6592C158.065 21.0849 157.661 19.2232 157.661 17.074C157.661 14.9779 158.065 13.1383 158.874 11.5551C159.682 9.97199 160.821 8.73821 162.288 7.85377C163.765 6.96934 165.496 6.52712 167.482 6.52712C168.818 6.52712 170.062 6.74381 171.213 7.17718C172.373 7.60171 173.384 8.24292 174.245 9.10082C175.115 9.95873 175.792 11.0377 176.275 12.3379C176.758 13.6291 177 15.1415 177 16.875V18.4272H159.902V14.9248H171.714C171.714 14.1111 171.538 13.3903 171.186 12.7624C170.835 12.1344 170.347 11.6436 169.723 11.2898C169.108 10.9272 168.392 10.7459 167.574 10.7459C166.722 10.7459 165.966 10.9449 165.307 11.3429C164.657 11.732 164.147 12.2583 163.778 12.9216C163.409 13.5761 163.22 14.3057 163.211 15.1106V18.4404C163.211 19.4487 163.396 20.3199 163.765 21.0539C164.143 21.788 164.674 22.3541 165.36 22.7521C166.045 23.1501 166.858 23.3491 167.799 23.3491C168.423 23.3491 168.994 23.2606 169.512 23.0837C170.031 22.9068 170.475 22.6415 170.844 22.2877C171.213 21.934 171.494 21.5006 171.687 20.9876L176.881 21.3325C176.618 22.5884 176.077 23.6851 175.26 24.6226C174.451 25.5513 173.406 26.2765 172.122 26.7983C170.848 27.3113 169.376 27.5678 167.706 27.5678Z" fill="url(#paint7_linear_1_2239)"/>
<path d="M167.706 27.5678C165.623 27.5678 163.831 27.1433 162.328 26.2942C160.834 25.4363 159.682 24.2246 158.874 22.6592C158.065 21.0849 157.661 19.2232 157.661 17.074C157.661 14.9779 158.065 13.1383 158.874 11.5551C159.682 9.97199 160.821 8.73821 162.288 7.85377C163.765 6.96934 165.496 6.52712 167.482 6.52712C168.818 6.52712 170.062 6.74381 171.213 7.17718C172.373 7.60171 173.384 8.24292 174.245 9.10082C175.115 9.95873 175.792 11.0377 176.275 12.3379C176.758 13.6291 177 15.1415 177 16.875V18.4272H159.902V14.9248H171.714C171.714 14.1111 171.538 13.3903 171.186 12.7624C170.835 12.1344 170.347 11.6436 169.723 11.2898C169.108 10.9272 168.392 10.7459 167.574 10.7459C166.722 10.7459 165.966 10.9449 165.307 11.3429C164.657 11.732 164.147 12.2583 163.778 12.9216C163.409 13.5761 163.22 14.3057 163.211 15.1106V18.4404C163.211 19.4487 163.396 20.3199 163.765 21.0539C164.143 21.788 164.674 22.3541 165.36 22.7521C166.045 23.1501 166.858 23.3491 167.799 23.3491C168.423 23.3491 168.994 23.2606 169.512 23.0837C170.031 22.9068 170.475 22.6415 170.844 22.2877C171.213 21.934 171.494 21.5006 171.687 20.9876L176.881 21.3325C176.618 22.5884 176.077 23.6851 175.26 24.6226C174.451 25.5513 173.406 26.2765 172.122 26.7983C170.848 27.3113 169.376 27.5678 167.706 27.5678Z" fill="white" fill-opacity="0.3"/>
<defs>
<linearGradient id="paint0_linear_1_2239" x1="177" y1="-9.67321" x2="-8.27317e-05" y2="-8.63963" gradientUnits="userSpaceOnUse">
<stop stop-color="#FF0199"/>
<stop offset="1" stop-color="#55C4E9"/>
</linearGradient>
<linearGradient id="paint1_linear_1_2239" x1="177" y1="-9.67321" x2="-8.27317e-05" y2="-8.63963" gradientUnits="userSpaceOnUse">
<stop stop-color="#FF0199"/>
<stop offset="1" stop-color="#55C4E9"/>
</linearGradient>
<linearGradient id="paint2_linear_1_2239" x1="177" y1="-9.67321" x2="-8.27317e-05" y2="-8.63963" gradientUnits="userSpaceOnUse">
<stop stop-color="#FF0199"/>
<stop offset="1" stop-color="#55C4E9"/>
</linearGradient>
<linearGradient id="paint3_linear_1_2239" x1="177" y1="-9.67321" x2="-8.27317e-05" y2="-8.63963" gradientUnits="userSpaceOnUse">
<stop stop-color="#FF0199"/>
<stop offset="1" stop-color="#55C4E9"/>
</linearGradient>
<linearGradient id="paint4_linear_1_2239" x1="177" y1="-9.67321" x2="-8.27317e-05" y2="-8.63963" gradientUnits="userSpaceOnUse">
<stop stop-color="#FF0199"/>
<stop offset="1" stop-color="#55C4E9"/>
</linearGradient>
<linearGradient id="paint5_linear_1_2239" x1="177" y1="-9.67321" x2="-8.27317e-05" y2="-8.63963" gradientUnits="userSpaceOnUse">
<stop stop-color="#FF0199"/>
<stop offset="1" stop-color="#55C4E9"/>
</linearGradient>
<linearGradient id="paint6_linear_1_2239" x1="177" y1="-9.67321" x2="-8.27317e-05" y2="-8.63963" gradientUnits="userSpaceOnUse">
<stop stop-color="#FF0199"/>
<stop offset="1" stop-color="#55C4E9"/>
</linearGradient>
<linearGradient id="paint7_linear_1_2239" x1="177" y1="-9.67321" x2="-8.27317e-05" y2="-8.63963" gradientUnits="userSpaceOnUse">
<stop stop-color="#FF0199"/>
<stop offset="1" stop-color="#55C4E9"/>
</linearGradient>
</defs>
</svg>
